<svg data-name="Layer 1" xmlns="http://www.w3.org/2000/svg" viewBox="0 0 1271 1034">
  <g>
    <path d="M34.54 375.55l234.89 285.19c5.64 6.86 14.65 10.92 24.23 10.92h172.27a31.58 31.58 0 0123.47 10L687.4 902a31.58 31.58 0 0023.47 10h471.35c25.6 0 39.44-26.58 22.82-43.83L698.91 342.64a31.72 31.72 0 00-22.82-9.33H58.78c-24.54 0-38.7 24.69-24.24 42.24z" fill="#1b1464"/>
    <path d="M157 164.24l214.26 260.11c5.65 6.85 14.66 10.91 24.24 10.91h157.29a31.58 31.58 0 0123.47 10l182 202.48a31.58 31.58 0 0023.47 10h430.51c25.6 0 39.44-26.58 22.82-43.83L770.23 131.33a31.72 31.72 0 00-22.82-9.33H181.28c-24.54 0-38.7 24.68-24.28 42.24z" fill="#ff9729"/>
  </g>
</svg>