<svg id="Layer_1" data-name="Layer 1" xmlns="http://www.w3.org/2000/svg" viewBox="0 0 1440 200">
  <title>text effect</title>
  <path d="M646.05,100q0,13.5-8.17,21.15T616.2,128.8H597.45V71.2H616.2q13.5,0,21.68,7.65T646.05,100ZM1440,0V200H0V0ZM414.76,47.5H386.41l-22.05,67.65L343.21,47.5h-27.3l-22.2,67.05-21.15-67H242l34,105h31.8l21-63.9,20.1,63.9h31.8Zm40.34,0H425.4v105h29.7ZM556.05,129H506V47.5h-29.7v105h79.8Zm120-28.95q0-15.9-7.35-27.75A48.58,48.58,0,0,0,648,54q-13.35-6.45-30.6-6.45H567.75v105H617.4q17.25,0,30.6-6.45a48.58,48.58,0,0,0,20.7-18.3Q676.05,115.9,676.05,100Zm137.7,52.5-.3-105H789l-36,60.6L716.1,47.5H691.65v105H719.1V98.35L746,142.15h13.2l27-45.3.3,55.65Zm118.8-105H903.3v57.3q0,25.2-19.8,25.2t-20-25.2V47.5h-29.7v58.2q0,23.4,13,36.15T883.2,154.6q23.4,0,36.37-12.75t13-36.15Zm103.5,73.2q0-11-5.78-17.32a34.22,34.22,0,0,0-13.65-9.3,143.16,143.16,0,0,0-19.87-5.48q-10.65-2.25-15.45-4.35T976.5,78c0-2.8,1.35-5.07,4-6.83s7-2.62,12.9-2.62q14.1,0,29.1,8.1l9.15-22a62.47,62.47,0,0,0-17.7-6.82,90.22,90.22,0,0,0-20.4-2.33q-15.15,0-25.58,4.5T952.35,62.12a30.16,30.16,0,0,0-5.25,17.33q0,11,5.7,17.4a33.43,33.43,0,0,0,13.65,9.38,151.24,151.24,0,0,0,19.8,5.47q10.8,2.4,15.67,4.57c3.25,1.46,4.88,3.68,4.88,6.68q0,8.55-17.1,8.55a62.24,62.24,0,0,1-18.3-2.85,63.09,63.09,0,0,1-16.35-7.5l-9.75,21.9q7.5,5.25,19.5,8.4a97.07,97.07,0,0,0,24.75,3.15q15,0,25.5-4.58t15.75-12.22A29.53,29.53,0,0,0,1036.05,120.7Zm43.35-73.2h-29.7v105h29.7Zm45.74,52.5a32.53,32.53,0,0,1,3.68-15.67,26,26,0,0,1,10.35-10.58A30.53,30.53,0,0,1,1154.39,70q14.55,0,24.75,12.3L1198,65.2a49.93,49.93,0,0,0-19.2-14.7,63.55,63.55,0,0,0-25.95-5.1,62.12,62.12,0,0,0-29.62,7,52.09,52.09,0,0,0-20.63,19.42,53.57,53.57,0,0,0-7.5,28.2,53.57,53.57,0,0,0,7.5,28.2,52.09,52.09,0,0,0,20.63,19.42,62.12,62.12,0,0,0,29.62,7,63.55,63.55,0,0,0,25.95-5.1,49.93,49.93,0,0,0,19.2-14.7l-18.9-17.1q-10.2,12.3-24.75,12.3a30.53,30.53,0,0,1-15.22-3.75,26,26,0,0,1-10.35-10.57A32.57,32.57,0,0,1,1125.14,100Z"/>
</svg>
