<svg version="1.1" id="icon-lp-mini" xmlns="http://www.w3.org/2000/svg" x="0" y="0" viewBox="0 0 800 800" xml:space="preserve">
  <style>
    .st0{fill:#181819;stroke:#141415;stroke-width:1.5}
  </style>
  <g>
    <circle class="st0" cx="400" cy="400" r="380"/>
    <circle class="st0" cx="400" cy="400" r="370"/>
    <circle class="st0" cx="400" cy="400" r="360"/>
    <circle class="st0" cx="400" cy="400" r="350"/>
    <circle class="st0" cx="400" cy="400" r="340"/>
    <circle class="st0" cx="400" cy="400" r="330"/>
    <circle class="st0" cx="400" cy="400" r="320"/>
    <circle class="st0" cx="400" cy="400" r="310"/>
    <circle class="st0" cx="400" cy="400" r="300"/>
    <circle class="st0" cx="400" cy="400" r="290"/>
    <circle class="st0" cx="400" cy="400" r="280"/>
    <circle class="st0" cx="400" cy="400" r="270"/>
    <circle class="st0" cx="400" cy="400" r="260"/>
    <circle class="st0" cx="400" cy="400" r="250"/>
    <circle class="st0" cx="400" cy="400" r="240"/>
    <circle class="st0" cx="400" cy="400" r="230"/>
    <circle class="st0" cx="400" cy="400" r="220"/>
    <circle class="st0" cx="400" cy="400" r="210"/>
    <circle class="st0" cx="400" cy="400" r="200"/>
  </g>
  <g>
    <g>
      <g>
        <path d="M295.1 502.7c10 13.1 30.7 13.8 46.3 1.9 6.3-5 17.5-18.1 17.5-45v-83.2l118.8-22.5v52.5c0 18.8-15 23.1-20 23.8h-1.9c-6.3 1.3-11.9 3.8-17.5 7.5-15.6 11.9-20 31.9-10 45 10 13.1 30.7 13.8 46.3 1.9 8.1-6.3 15.6-17.5 15.6-35.7V309.4c0-7.5-6.3-11.3-13.1-9.4L357 322.5c-8.1 2.5-11.3 10.6-11.3 17.5v81.3c0 18.8-16.9 27.5-21.9 28.1h-1.9c-5.6 1.3-11.9 3.8-16.9 7.5-15.5 12.6-19.9 32.6-9.9 45.8z" fill="#231f20"/>
      </g>
    </g>
    <g>
      <g>
        <path d="M295.1 490.1c10 13.1 30.7 13.8 46.3 1.9 6.3-5 17.5-18.1 17.5-45v-83.2l118.8-22.5v52.5c0 18.8-15 23.1-20 23.8h-1.9c-6.3 1.3-11.9 3.8-17.5 7.5-15.6 11.9-20 31.9-10 45 10 13.1 30.7 13.8 46.3 1.9 8.1-6.3 15.6-17.5 15.6-35.7V296.9c0-7.5-6.3-11.3-13.1-9.4L357 310c-8.1 2.5-11.3 10.6-11.3 17.5v81.3c0 18.8-16.9 27.5-21.9 28.1h-1.9c-5.6 1.3-11.9 3.8-16.9 7.5-15.5 12.6-19.9 32.6-9.9 45.7z" fill="#fff"/>
      </g>
    </g>
  </g>
</svg>