<?xml version="1.0" encoding="UTF-8" standalone="no"?>
<!DOCTYPE svg PUBLIC "-//W3C//DTD SVG 1.1//EN" "http://www.w3.org/Graphics/SVG/1.1/DTD/svg11.dtd">
<svg width="100%" height="100%" viewBox="0 0 356 345" version="1.1" xmlns="http://www.w3.org/2000/svg" xmlns:xlink="http://www.w3.org/1999/xlink" xml:space="preserve" xmlns:serif="http://www.serif.com/" style="fill-rule:evenodd;clip-rule:evenodd;stroke-linejoin:round;stroke-miterlimit:1.41421;">
    <g transform="matrix(1,0,0,1,-384.793,-204.876)">
        <g transform="matrix(0.524385,-0.303804,0.5013,0.865274,144.302,121.508)">
            <rect x="227" y="385" width="376" height="120" style="fill:rgb(59,0,75);"/>
        </g>
        <g id="bottom" transform="matrix(0.84956,-0.527492,0.527492,0.84956,-114.793,353.362)">
            <path d="M427.567,378L426.669,259.919L696.801,257.864L697.543,355.415L503.385,356.892C490.504,356.99 480.118,366.408 480.205,377.91L480.207,378L427.567,378Z" style="fill:rgb(235,235,235);"/>
        </g>
        <g id="peg" transform="matrix(1,0,0,1,-265,87)">
            <g transform="matrix(1,0,0,0.645833,0,106.229)">
                <circle cx="920" cy="211" r="24" style="fill:rgb(255,0,225);"/>
            </g>
            <g transform="matrix(1,0,0,2.02326,0,-282.581)">
                <rect x="896" y="240" width="48" height="43" style="fill:rgb(255,0,225);"/>
            </g>
            <g transform="matrix(1,0,0,0.645833,0,66.2292)">
                <circle cx="920" cy="211" r="24" style="fill:rgb(147,13,185);"/>
            </g>
            <g transform="matrix(1,0,0,1,265,-89)">
                <text x="641.001px" y="322.596px" style="font-family:'ArialMT', 'Arial', sans-serif;font-size:12px;fill-opacity:0.8;">Click</text>
                <text x="645.665px" y="334.988px" style="font-family:'ArialMT', 'Arial', sans-serif;font-size:12px;fill-opacity:0.8;">me</text>
            </g>
        </g>
        <g id="top" transform="matrix(0.84956,-0.527492,-0.527492,-0.84956,283.919,995.514)">
            <path d="M427.567,378L426.669,259.919L696.801,257.864L697.543,355.415L503.385,356.892C490.504,356.99 480.118,366.408 480.205,377.91L480.207,378L427.567,378Z" style="fill:rgb(235,235,235);"/>
        </g>
    </g>
</svg>
